<svg width="1068" height="801" viewBox="0 0 1068 801" fill="none" xmlns="http://www.w3.org/2000/svg">
	<path d="M463.627 756.423C456.642 783.021 432.168 799.643 432.168 799.643C432.168 799.643 419.018 773.141 426.002 746.543C432.987 719.945 457.461 703.323 457.461 703.323C457.461 703.323 470.612 729.825 463.627 756.423Z" fill="#FAFF00" fill-opacity="0.65" />
	<path d="M453.033 750.797C433.471 770.124 431.282 799.628 431.282 799.628C431.282 799.628 460.81 797.796 480.373 778.469C499.935 759.142 502.124 729.638 502.124 729.638C502.124 729.638 472.596 731.469 453.033 750.797Z" fill="#FE5454" />
	<path d="M128 313C163.899 313 193 283.899 193 248C193 212.101 163.899 183 128 183C92.1015 183 63 212.101 63 248C63 283.899 92.1015 313 128 313Z" fill="#FFF8BB" />
	<path d="M634.411 207.041H270.162V130.821H634.411V207.041ZM271.767 205.436H632.806V132.426H271.767V205.436Z" fill="#3F3D56" />
	<path d="M607.935 146.065H245.291V220.68H607.935V146.065Z" fill="#FE5454" />
	<path d="M16.0461 74.8601C19.1478 74.8601 21.6623 72.3456 21.6623 69.2439C21.6623 66.1421 19.1478 63.6276 16.0461 63.6276C12.9443 63.6276 10.4298 66.1421 10.4298 69.2439C10.4298 72.3456 12.9443 74.8601 16.0461 74.8601Z" fill="#FE5454" />
	<path d="M35.3015 74.8601C38.4033 74.8601 40.9178 72.3456 40.9178 69.2439C40.9178 66.1421 38.4033 63.6276 35.3015 63.6276C32.1998 63.6276 29.6853 66.1421 29.6853 69.2439C29.6853 72.3456 32.1998 74.8601 35.3015 74.8601Z" fill="#FE5454" />
	<path d="M54.5569 74.8601C57.6587 74.8601 60.1731 72.3456 60.1731 69.2439C60.1731 66.1421 57.6587 63.6276 54.5569 63.6276C51.4552 63.6276 48.9407 66.1421 48.9407 69.2439C48.9407 72.3456 51.4552 74.8601 54.5569 74.8601Z" fill="#FE5454" />
	<path d="M675.545 493.666H0V54H675.545V493.666ZM1.60461 492.061H673.94V55.6046H1.60461V492.061Z" fill="#3F3D56" />
	<path d="M674.742 78.338H0.802246V79.9427H674.742V78.338Z" fill="#3F3D56" />
	<path d="M17.6508 73.2555C16.3813 73.2555 15.1404 72.879 14.0849 72.1737C13.0294 71.4685 12.2067 70.466 11.7209 69.2932C11.2351 68.1204 11.108 66.8299 11.3556 65.5848C11.6033 64.3397 12.2146 63.1961 13.1123 62.2984C14.0099 61.4008 15.1535 60.7895 16.3986 60.5418C17.6437 60.2942 18.9342 60.4213 20.107 60.9071C21.2799 61.3929 22.2823 62.2155 22.9876 63.2711C23.6928 64.3266 24.0693 65.5675 24.0693 66.837C24.0673 68.5387 23.3904 70.1701 22.1872 71.3733C20.9839 72.5766 19.3525 73.2535 17.6508 73.2555ZM17.6508 62.0231C16.6987 62.0231 15.768 62.3054 14.9764 62.8344C14.1847 63.3633 13.5677 64.1152 13.2034 64.9948C12.839 65.8744 12.7437 66.8423 12.9294 67.7761C13.1152 68.7099 13.5736 69.5677 14.2469 70.2409C14.9201 70.9141 15.7778 71.3726 16.7116 71.5583C17.6454 71.7441 18.6133 71.6487 19.493 71.2844C20.3726 70.92 21.1244 70.303 21.6534 69.5114C22.1823 68.7198 22.4646 67.7891 22.4646 66.837C22.4632 65.5607 21.9555 64.3371 21.0531 63.4347C20.1506 62.5322 18.9271 62.0246 17.6508 62.0231V62.0231Z" fill="#3F3D56" />
	<path d="M36.9063 73.2555C35.6368 73.2555 34.3959 72.879 33.3403 72.1737C32.2848 71.4685 31.4622 70.466 30.9764 69.2932C30.4906 68.1204 30.3635 66.8299 30.6111 65.5848C30.8588 64.3397 31.4701 63.1961 32.3677 62.2984C33.2654 61.4008 34.409 60.7895 35.6541 60.5418C36.8992 60.2942 38.1897 60.4213 39.3625 60.9071C40.5353 61.3929 41.5378 62.2155 42.243 63.2711C42.9483 64.3266 43.3248 65.5675 43.3248 66.837C43.3228 68.5387 42.6459 70.1701 41.4426 71.3733C40.2394 72.5766 38.6079 73.2535 36.9063 73.2555V73.2555ZM36.9063 62.0231C35.9542 62.0231 35.0235 62.3054 34.2318 62.8344C33.4402 63.3633 32.8232 64.1152 32.4588 64.9948C32.0945 65.8744 31.9991 66.8423 32.1849 67.7761C32.3706 68.7099 32.8291 69.5677 33.5024 70.2409C34.1756 70.9141 35.0333 71.3726 35.9671 71.5583C36.9009 71.7441 37.8688 71.6487 38.7485 71.2844C39.6281 70.92 40.3799 70.303 40.9089 69.5114C41.4378 68.7198 41.7201 67.7891 41.7201 66.837C41.7187 65.5607 41.211 64.3371 40.3085 63.4347C39.4061 62.5322 38.1825 62.0246 36.9063 62.0231V62.0231Z" fill="#3F3D56" />
	<path d="M56.1616 73.2554C54.8922 73.2554 53.6512 72.879 52.5957 72.1737C51.5402 71.4685 50.7176 70.466 50.2318 69.2932C49.746 68.1204 49.6188 66.8299 49.8665 65.5848C50.1141 64.3397 50.7254 63.1961 51.6231 62.2984C52.5207 61.4008 53.6644 60.7895 54.9095 60.5418C56.1545 60.2942 57.4451 60.4213 58.6179 60.9071C59.7907 61.3929 60.7932 62.2155 61.4984 63.271C62.2037 64.3266 62.5801 65.5675 62.5801 66.837C62.5781 68.5386 61.9013 70.1701 60.698 71.3733C59.4948 72.5766 57.8633 73.2535 56.1616 73.2554V73.2554ZM56.1616 62.0231C55.2096 62.0231 54.2788 62.3054 53.4872 62.8344C52.6956 63.3633 52.0786 64.1152 51.7142 64.9948C51.3498 65.8744 51.2545 66.8423 51.4403 67.7761C51.626 68.7099 52.0845 69.5676 52.7577 70.2409C53.4309 70.9141 54.2887 71.3726 55.2225 71.5583C56.1563 71.7441 57.1242 71.6487 58.0038 71.2844C58.8834 70.92 59.6353 70.303 60.1642 69.5114C60.6932 68.7198 60.9755 67.7891 60.9755 66.837C60.974 65.5607 60.4664 64.3372 59.5639 63.4347C58.6615 62.5322 57.4379 62.0246 56.1616 62.0231V62.0231Z" fill="#3F3D56" />
	<path d="M213.195 79.1404H211.59V493.486H213.195V79.1404Z" fill="#3F3D56" />
	<path d="M406.154 282.859H288.214V298.905H406.154V282.859Z" fill="#F2F2F2" />
	<path d="M591.487 282.859H473.548V298.905H591.487V282.859Z" fill="#F2F2F2" />
	<path d="M413.375 291.684H293.83V274.033H413.375V291.684ZM295.435 290.08H411.77V275.638H295.435V290.08Z" fill="#3F3D56" />
	<path d="M406.154 407.217H288.214V423.263H406.154V407.217Z" fill="#F2F2F2" />
	<path d="M413.375 416.042H293.83V398.391H413.375V416.042ZM295.435 414.438H411.77V399.996H295.435V414.438Z" fill="#3F3D56" />
	<path d="M591.888 343.433H288.615V359.479H591.888V343.433Z" fill="#F2F2F2" />
	<path d="M599.109 353.863H294.231V336.212H599.109V353.863ZM295.836 352.259H597.505V337.817H295.836V352.259Z" fill="#3F3D56" />
	<path d="M598.708 291.684H479.164V274.033H598.708V291.684ZM480.768 290.08H597.103V275.638H480.768V290.08Z" fill="#3F3D56" />
	<path d="M108.545 339.458C95.4914 339.458 82.7309 335.587 71.8773 328.335C61.0237 321.083 52.5643 310.775 47.5689 298.715C42.5735 286.655 41.2665 273.385 43.8131 260.582C46.3597 247.779 52.6456 236.019 61.8759 226.789C71.1062 217.559 82.8662 211.273 95.669 208.726C108.472 206.179 121.742 207.487 133.802 212.482C145.862 217.477 156.17 225.937 163.422 236.79C170.674 247.644 174.545 260.404 174.545 273.458C174.525 290.956 167.565 307.732 155.192 320.105C142.819 332.478 126.043 339.438 108.545 339.458ZM108.545 209.458C95.887 209.458 83.5132 213.211 72.9884 220.244C62.4637 227.276 54.2607 237.272 49.4167 248.966C44.5727 260.661 43.3052 273.529 45.7747 285.944C48.2442 298.359 54.3396 309.762 63.2901 318.713C72.2407 327.663 83.6444 333.759 96.0592 336.228C108.474 338.698 121.342 337.43 133.037 332.586C144.731 327.742 154.727 319.539 161.759 309.014C168.791 298.49 172.545 286.116 172.545 273.458C172.526 256.49 165.777 240.223 153.779 228.224C141.78 216.226 125.513 209.477 108.545 209.458Z" fill="#3F3D56" />
	<path d="M630.545 798.458H347.545V800.458H630.545V798.458Z" fill="#3F3D56" />
	<g opacity="0.8">
		<path opacity="0.8" d="M888.633 678.245C888.633 678.245 893.007 666.883 875.897 631.309C858.787 595.734 860.795 591.217 863.146 581.882C865.496 572.548 865.992 567.358 879.548 557.15C879.548 557.15 917.485 549.459 923.29 542.532C929.095 535.605 919.271 506.919 919.271 506.919C919.271 506.919 910.683 472.45 956.844 464.969C956.844 464.969 991.804 469.013 1002.4 462.44C1002.4 462.44 997.081 475.418 1006.43 496.492C1015.77 517.565 997.463 534.901 997.463 534.901C997.463 534.901 983.693 540.513 975.424 540.103C967.155 539.693 964.098 543.14 968.282 553.235C968.282 553.235 975.452 558.106 987.021 550.824C998.591 543.542 1007.22 538.375 1016.34 540.179C1025.47 541.983 1038.16 547.403 1044.81 565.455C1051.46 583.507 1053.09 608.172 1058.18 619.931C1063.27 631.69 1066.6 634.49 1066.6 634.49C1066.6 634.49 1059.15 627.334 1028.51 645.075C997.87 662.815 984.223 652.112 984.223 652.112C984.223 652.112 962.28 643.369 963.326 603.004C963.326 603.004 961.2 564.166 945.108 585.652C945.108 585.652 948.114 599.17 954.932 619.349C961.75 639.528 935.401 654.64 916.95 658.616C898.5 662.593 888.633 678.245 888.633 678.245Z" fill="#FF5959" />
		<path opacity="0.8" d="M1042.95 623.189L1043.01 623.397C1037.13 625.065 1013.08 608.129 993.931 593.625L994.058 593.453C1021.06 613.905 1038.43 624.511 1042.95 623.189Z" fill="#444053" />
		<path opacity="0.8" d="M994.453 593.746L994.215 593.84C978.921 582.256 960.653 567.666 947.108 555.971C945.818 554.854 944.467 553.748 943.048 552.694L943.311 552.339C944.701 553.414 946.062 554.52 947.372 555.636C960.937 567.331 979.17 582.172 994.453 593.746Z" fill="#444053" />
		<path opacity="0.8" d="M943.717 552.622L943.321 552.869C915.8 531.636 873.661 530.963 873.29 530.919L878.446 526.245C878.867 526.287 916.013 531.242 943.717 552.622Z" fill="#444053" />
		<path opacity="0.8" d="M902.882 652.791C902.882 652.791 915.734 626.933 910.591 607.053C905.449 587.174 926.308 541.837 926.308 541.837C926.308 541.837 933.709 522.609 942.478 518.609C942.478 518.609 956.087 505.269 963.223 504.389C970.358 503.509 988.162 490.403 988.661 482.113" stroke="#444053" stroke-miterlimit="10" />
		<path opacity="0.8" d="M889.997 649.315C889.997 649.315 898.451 636.259 908.616 637.574" stroke="#444053" stroke-miterlimit="10" />
		<path opacity="0.8" d="M878.408 629.733C878.408 629.733 884.772 611.154 911.034 608.826" stroke="#444053" stroke-miterlimit="10" />
		<path opacity="0.8" d="M871.068 600.081C871.068 600.081 885.375 582.178 911.047 587.572" stroke="#444053" stroke-miterlimit="10" />
		<path opacity="0.8" d="M877.566 564.167C877.566 564.167 901.978 551.981 918.186 562.138" stroke="#444053" stroke-miterlimit="10" />
		<path opacity="0.8" d="M919.125 652.796C919.125 652.796 914.643 639.525 907.676 642.522" stroke="#444053" stroke-miterlimit="10" />
		<path opacity="0.8" d="M943.048 636.248C943.048 636.248 937.064 618.494 911.79 618.534" stroke="#444053" stroke-miterlimit="10" />
		<path opacity="0.8" d="M948.424 611.246C948.424 611.246 928.072 595.364 909.865 596.845" stroke="#444053" stroke-miterlimit="10" />
		<path opacity="0.8" d="M940.037 582.934C940.037 582.934 924.316 567.067 915.785 569.283" stroke="#444053" stroke-miterlimit="10" />
		<path opacity="0.8" d="M945.309 573.096C945.309 573.096 942.324 558.008 947.255 555.808" stroke="#444053" stroke-miterlimit="10" />
		<path opacity="0.8" d="M963.228 553.097C963.228 553.097 953.239 560.93 955.545 562.858" stroke="#444053" stroke-miterlimit="10" />
		<path opacity="0.8" d="M971.017 628.788C971.017 628.788 967.553 590.685 978.894 581.847" stroke="#444053" stroke-miterlimit="10" />
		<path opacity="0.8" d="M1014.11 544.14C1014.11 544.14 976.016 562.746 971.353 575.833" stroke="#444053" stroke-miterlimit="10" />
		<path opacity="0.8" d="M1032.76 562.604C1032.76 562.604 997.619 574.245 986.828 588.064" stroke="#444053" stroke-miterlimit="10" />
		<path opacity="0.8" d="M1000.47 644.315C1000.47 644.315 987.498 615.546 999.779 597.88" stroke="#444053" stroke-width="0.75" stroke-miterlimit="10" />
		<path opacity="0.8" d="M1040.77 588.302C1040.77 588.302 1014.9 595.404 1008.79 604.447" stroke="#444053" stroke-width="0.75" stroke-miterlimit="10" />
		<path opacity="0.8" d="M1029.53 639.405C1029.53 639.405 1023.06 623.21 1027.68 617.035" stroke="#444053" stroke-width="0.75" stroke-miterlimit="10" />
		<path opacity="0.8" d="M954.486 539.284C954.486 539.284 931.84 539.696 930.118 533.556" stroke="#444053" stroke-miterlimit="10" />
		<path opacity="0.8" d="M924.223 489.406C924.223 489.406 922.569 513.94 935.413 524.998" stroke="#444053" stroke-miterlimit="10" />
		<path opacity="0.8" d="M981.126 532.478C981.126 532.478 958.023 526.977 951.566 510.742" stroke="#444053" stroke-miterlimit="10" />
		<path opacity="0.8" d="M948.152 474.278C948.152 474.278 942.469 491.725 958.057 506.353" stroke="#444053" stroke-miterlimit="10" />
		<path opacity="0.8" d="M1000.52 512.852C1000.52 512.852 980.986 511.567 971.665 501.125" stroke="#444053" stroke-miterlimit="10" />
		<path opacity="0.8" d="M977.889 474.397C977.889 474.397 978.061 488.787 982.802 492.071" stroke="#444053" stroke-miterlimit="10" />
	</g>
	<path d="M779.942 298.789C780.19 312.402 776.395 325.784 769.038 337.24C761.68 348.697 751.09 357.714 738.608 363.152C726.125 368.59 712.31 370.205 698.91 367.791C685.51 365.377 673.127 359.044 663.326 349.592C653.526 340.141 646.748 327.995 643.851 314.691C640.953 301.387 642.066 287.523 647.048 274.852C652.03 262.18 660.658 251.271 671.841 243.503C683.023 235.735 696.258 231.458 709.871 231.212C728.124 230.883 745.76 237.817 758.901 250.49C772.041 263.163 779.61 280.536 779.942 298.789ZM796.939 298.48C796.631 281.505 791.295 265.002 781.607 251.06C771.919 237.117 758.314 226.36 742.513 220.15C726.711 213.94 709.423 212.555 692.835 216.17C676.246 219.785 661.102 228.239 649.318 240.461C637.534 252.683 629.639 268.126 626.631 284.835C623.624 301.544 625.639 318.771 632.421 334.335C639.204 349.899 650.45 363.102 664.737 372.275C679.024 381.448 695.71 386.178 712.685 385.867C735.438 385.426 757.087 375.978 772.882 359.596C788.678 343.213 797.33 321.234 796.939 298.48Z" fill="#FE5454" fill-opacity="0.87" />
	<path d="M817.151 305.523L816.785 285.407L795.608 285.792L795.974 305.909L817.151 305.523Z" fill="#FE5454" fill-opacity="0.87" />
	<path d="M799.167 358.992L809.214 341.561L790.864 330.984L780.816 348.416L799.167 358.992Z" fill="#FE5454" fill-opacity="0.87" />
	<path d="M757.899 395.117L775.316 385.044L764.713 366.71L747.296 376.783L757.899 395.117Z" fill="#FE5454" fill-opacity="0.87" />
	<path d="M650.638 387.049L667.891 397.398L678.787 379.236L661.533 368.886L650.638 387.049Z" fill="#FE5454" fill-opacity="0.87" />
	<path d="M744.487 222.04L762.259 231.473L772.189 212.765L754.417 203.332L744.487 222.04Z" fill="#FE5454" fill-opacity="0.87" />
	<path d="M659.069 233.054L675.935 222.084L664.387 204.329L647.521 215.3L659.069 233.054Z" fill="#FE5454" fill-opacity="0.87" />
	<path d="M779.012 249.159L789.687 266.213L807.64 254.976L796.965 237.922L779.012 249.159Z" fill="#FE5454" fill-opacity="0.87" />
	<path d="M626.542 308.991L626.177 288.874L605 289.26L605.366 309.376L626.542 308.991Z" fill="#FE5454" fill-opacity="0.87" />
	<path d="M643.232 350.922L632.557 333.867L614.604 345.104L625.278 362.159L643.232 350.922Z" fill="#FE5454" fill-opacity="0.87" />
	<path d="M623.074 241.088L613.027 258.52L631.377 269.096L641.424 251.665L623.074 241.088Z" fill="#FE5454" fill-opacity="0.87" />
	<path d="M718.07 216.241L717.627 191.885L699.63 192.212L700.073 216.568L718.07 216.241Z" fill="#FE5454" fill-opacity="0.87" />
	<path d="M703.117 383.861L703.56 408.216L721.557 407.889L721.114 383.533L703.117 383.861Z" fill="#FE5454" fill-opacity="0.87" />
	<path d="M906.741 456.429C906.988 470.042 903.194 483.423 895.836 494.88C888.479 506.336 877.889 515.354 865.406 520.792C852.924 526.23 839.109 527.844 825.709 525.431C812.309 523.017 799.925 516.684 790.125 507.232C780.324 497.78 773.547 485.634 770.649 472.331C767.751 459.027 768.864 445.163 773.846 432.491C778.829 419.82 787.456 408.91 798.639 401.143C809.822 393.375 823.056 389.098 836.67 388.852C854.923 388.523 872.559 395.457 885.699 408.13C898.84 420.802 906.409 438.176 906.741 456.429V456.429ZM923.738 456.119C923.429 439.144 918.093 422.642 908.405 408.699C898.718 394.757 885.113 384 869.311 377.79C853.51 371.579 836.222 370.194 819.633 373.81C803.045 377.425 787.901 385.878 776.117 398.1C764.332 410.323 756.437 425.765 753.43 442.475C750.422 459.184 752.437 476.41 759.22 491.974C766.003 507.539 777.249 520.742 791.536 529.915C805.822 539.087 822.508 543.817 839.484 543.506C862.236 543.066 883.885 533.618 899.681 517.235C915.476 500.853 924.128 478.873 923.738 456.119V456.119Z" fill="#FE5454" fill-opacity="0.87" />
	<path d="M943.939 463.163L943.573 443.046L922.397 443.432L922.763 463.548L943.939 463.163Z" fill="#FE5454" fill-opacity="0.87" />
	<path d="M925.972 516.639L936.019 499.207L917.669 488.63L907.622 506.062L925.972 516.639Z" fill="#FE5454" fill-opacity="0.87" />
	<path d="M884.701 552.762L902.118 542.689L891.515 524.354L874.098 534.427L884.701 552.762Z" fill="#FE5454" fill-opacity="0.87" />
	<path d="M777.434 544.685L794.688 555.035L805.583 536.872L788.329 526.522L777.434 544.685Z" fill="#FE5454" fill-opacity="0.87" />
	<path d="M871.274 379.674L889.045 389.106L898.975 370.398L881.203 360.966L871.274 379.674Z" fill="#FE5454" fill-opacity="0.87" />
	<path d="M785.86 390.69L802.726 379.72L791.178 361.965L774.312 372.936L785.86 390.69Z" fill="#FE5454" fill-opacity="0.87" />
	<path d="M905.814 406.798L916.489 423.853L934.442 412.616L923.767 395.561L905.814 406.798Z" fill="#FE5454" fill-opacity="0.87" />
	<path d="M753.341 466.631L752.975 446.514L731.798 446.899L732.164 467.016L753.341 466.631Z" fill="#FE5454" fill-opacity="0.87" />
	<path d="M770.027 508.562L759.352 491.507L741.399 502.744L752.073 519.798L770.027 508.562Z" fill="#FE5454" fill-opacity="0.87" />
	<path d="M749.876 398.721L739.829 416.153L758.179 426.729L768.226 409.298L749.876 398.721Z" fill="#FE5454" fill-opacity="0.87" />
	<path d="M844.869 373.87L844.426 349.514L826.429 349.842L826.872 374.198L844.869 373.87Z" fill="#FE5454" fill-opacity="0.87" />
	<path d="M829.916 541.51L830.359 565.866L848.356 565.539L847.913 541.183L829.916 541.51Z" fill="#FE5454" fill-opacity="0.87" />
	<path d="M906.221 136.505C906.236 137.315 906.251 138.125 906.265 138.935C905.978 156.986 898.611 174.202 885.752 186.874C872.893 199.546 855.57 206.659 837.516 206.68C819.462 206.702 802.123 199.63 789.233 186.989C776.344 174.348 768.936 157.149 768.606 139.099C768.591 138.289 768.576 137.479 768.561 136.659C768.848 118.607 776.216 101.39 789.076 88.718C801.937 76.0462 819.261 68.9339 837.315 68.9137C855.37 68.8935 872.71 75.967 885.599 88.61C898.488 101.253 905.894 118.453 906.221 136.505V136.505ZM923.218 136.196C922.812 113.686 913.578 92.2372 897.507 76.4708C881.436 60.7045 859.815 51.8828 837.301 51.9067C814.788 51.9307 793.185 60.7983 777.148 76.5988C761.11 92.3993 751.922 113.868 751.563 136.378C751.581 137.378 751.55 138.379 751.568 139.379C751.977 161.888 761.213 183.335 777.284 199.099C793.356 214.863 814.977 223.683 837.49 223.658C860.002 223.633 881.604 214.764 897.64 198.964C913.677 183.164 922.864 161.696 923.223 139.186C923.205 138.186 923.236 137.186 923.218 136.186L923.218 136.196Z" fill="#FE5454" fill-opacity="0.87" />
	<path d="M943.15 146.947L943.482 126.83L922.305 126.479L921.973 146.597L943.15 146.947Z" fill="#FE5454" fill-opacity="0.87" />
	<path d="M923.334 199.752L933.981 182.679L916.009 171.472L905.363 188.545L923.334 199.752Z" fill="#FE5454" fill-opacity="0.87" />
	<path d="M880.839 234.428L898.595 224.966L888.635 206.274L870.879 215.736L880.839 234.428Z" fill="#FE5454" fill-opacity="0.87" />
	<path d="M773.95 222.653L790.834 233.596L802.353 215.822L785.469 204.879L773.95 222.653Z" fill="#FE5454" fill-opacity="0.87" />
	<path d="M873.452 60.9867L890.886 71.0308L901.459 52.6787L884.026 42.6346L873.452 60.9867Z" fill="#FE5454" fill-opacity="0.87" />
	<path d="M786.019 67.6548L803.337 57.2781L792.414 39.0472L775.095 49.4239L786.019 67.6548Z" fill="#FE5454" fill-opacity="0.87" />
	<path d="M907.03 89.3113L917.106 106.727L935.439 96.1198L925.363 78.7045L907.03 89.3113Z" fill="#FE5454" fill-opacity="0.87" />
	<path d="M752.555 143.802L752.888 123.685L731.711 123.334L731.378 143.452L752.555 143.802Z" fill="#FE5454" fill-opacity="0.87" />
	<path d="M767.763 186.297L757.687 168.882L739.354 179.489L749.43 196.904L767.763 186.297Z" fill="#FE5454" fill-opacity="0.87" />
	<path d="M751.454 75.842L740.808 92.9145L758.78 104.122L769.426 87.0493L751.454 75.842Z" fill="#FE5454" fill-opacity="0.87" />
	<path d="M847.241 54.2842L847.644 29.9276L829.646 29.6298L829.243 53.9865L847.241 54.2842Z" fill="#FE5454" fill-opacity="0.87" />
	<path opacity="0.1" d="M641.521 3.13794C640.594 2.07989 639.393 1.2987 638.05 0.880704C636.154 0.0495776 634.024 -0.0783431 632.042 0.519922C632.406 1.26343 633.33 1.49667 634.134 1.71208C635.387 2.05765 636.587 2.57073 637.703 3.23742C638.713 3.81913 640.993 6.54809 642.043 6.51899C643.652 6.45971 642.105 3.86744 641.521 3.13794Z" fill="black" />
</svg>
