<?xml version="1.0"?>
<svg xmlns="http://www.w3.org/2000/svg" xmlns:xlink="http://www.w3.org/1999/xlink" xmlns:svgjs="http://svgjs.com/svgjs" version="1.1" width="192" height="192" x="0" y="0" viewBox="0 0 512.052 512.052" style="enable-background:new 0 0 512 512" xml:space="preserve" class="">
	<g>
		<link type="text/css" rel="stylesheet" id="dark-mode-custom-link" />
		<link type="text/css" rel="stylesheet" id="dark-mode-general-link" />
		<style lang="en" type="text/css" id="dark-mode-custom-style" />
		<style lang="en" type="text/css" id="dark-mode-native-style" />
		<path xmlns="http://www.w3.org/2000/svg" id="XMLID_1053_" d="m10 269.937c0 106.039 66.93 178.087 149.492 178.087s149.492-72.048 149.492-178.087-66.93-205.913-149.492-205.913-149.492 99.875-149.492 205.913z" fill="#5268F4" data-original="#ffd89e" style="" class="" />
		<path xmlns="http://www.w3.org/2000/svg" id="XMLID_1052_" d="m429.283 387.504c-74.981 74.981-173.253 78.6-231.633 20.22s-54.761-156.652 20.22-231.633 192.929-98.276 251.309-39.896 35.084 176.328-39.896 251.309z" fill="#5268F4" data-original="#3A48A1" style="" class="" />
		<path xmlns="http://www.w3.org/2000/svg" id="XMLID_221_" d="m476.25 129.123c-30.167-30.166-75.694-41.833-128.188-32.848-25.13 4.301-50.401 13.266-74.139 25.991-30.466-43.474-71.791-68.242-114.432-68.242-42.661 0-83.101 23.942-113.869 67.415-28.993 40.967-45.622 95.092-45.622 148.498 0 52.832 16.416 100.9 46.223 135.351 29.424 34.007 69.65 52.736 113.269 52.736 23.952 0 46.691-5.532 67.663-16.447 20.92 10.799 44.352 16.451 68.983 16.45 3.912 0 7.857-.143 11.824-.429 45.437-3.283 91.034-25.666 128.393-63.023 37.764-37.765 64.278-87.795 72.744-137.265 8.983-52.496-2.683-98.021-32.849-128.187zm13.134 124.814c-7.784 45.484-32.268 91.59-67.173 126.496-68.869 68.871-160.337 77.374-217.491 20.22-14.093-14.093-24.403-30.708-30.645-49.382-1.751-5.239-7.421-8.067-12.654-6.315-5.238 1.75-8.065 7.416-6.315 12.654 7.232 21.641 19.167 40.88 35.471 57.185 5.15 5.15 10.605 9.859 16.324 14.124-14.962 6.048-30.847 9.106-47.41 9.106-80.826-.001-139.491-70.692-139.491-168.088 0-49.364 15.29-99.278 41.948-136.944 26.913-38.027 61.555-58.969 97.544-58.969 35.569 0 70.567 21.15 97.117 58.367-16.494 10.48-31.977 22.795-45.81 36.628-27.681 27.68-47.33 60.016-56.824 93.51-1.506 5.313 1.581 10.842 6.894 12.348 5.314 1.504 10.842-1.581 12.348-6.894 8.565-30.219 26.451-59.549 51.724-84.822 34.905-34.905 81.011-59.389 126.495-67.172 45.92-7.861 85.224 1.828 110.671 27.277 25.449 25.448 35.136 64.752 27.277 110.671z" fill="#3A48A1" data-original="#000000" style="" class="" />
		<path xmlns="http://www.w3.org/2000/svg" id="XMLID_855_" d="m157.35 300.024c-2.63 0-5.21 1.07-7.07 2.93s-2.93 4.44-2.93 7.07 1.07 5.21 2.93 7.07 4.43 2.93 7.07 2.93c2.63 0 5.21-1.07 7.07-2.93s2.93-4.44 2.93-7.07-1.07-5.21-2.93-7.07-4.44-2.93-7.07-2.93z" fill="#3A48A1" data-original="#000000" style="" class="" />
	</g>
</svg>